<mxfile host="Electron" agent="Mozilla/5.0 (X11; Linux x86_64) AppleWebKit/537.36 (KHTML, like Gecko) draw.io/26.0.4 Chrome/128.0.6613.186 Electron/32.2.5 Safari/537.36" version="26.0.4">
  <diagram name="Page-1" id="1-jnstpXMmN6s9PmuX7g">
    <mxGraphModel dx="1114" dy="1198" grid="1" gridSize="10" guides="1" tooltips="1" connect="1" arrows="1" fold="1" page="1" pageScale="1" pageWidth="850" pageHeight="1100" math="0" shadow="0">
      <root>
        <mxCell id="0" />
        <mxCell id="1" parent="0" />
        <mxCell id="Q4IANlV82dqfYIMmkWPD-1" value="VPC" style="points=[[0,0],[0.25,0],[0.5,0],[0.75,0],[1,0],[1,0.25],[1,0.5],[1,0.75],[1,1],[0.75,1],[0.5,1],[0.25,1],[0,1],[0,0.75],[0,0.5],[0,0.25]];outlineConnect=0;gradientColor=none;html=1;whiteSpace=wrap;fontSize=12;fontStyle=0;container=1;pointerEvents=0;collapsible=0;recursiveResize=0;shape=mxgraph.aws4.group;grIcon=mxgraph.aws4.group_vpc2;strokeColor=#8C4FFF;fillColor=none;verticalAlign=top;align=left;spacingLeft=30;fontColor=#AAB7B8;dashed=0;" vertex="1" parent="1">
          <mxGeometry x="260" y="400" width="460" height="280" as="geometry" />
        </mxCell>
        <mxCell id="Q4IANlV82dqfYIMmkWPD-2" value="Public subnet" style="points=[[0,0],[0.25,0],[0.5,0],[0.75,0],[1,0],[1,0.25],[1,0.5],[1,0.75],[1,1],[0.75,1],[0.5,1],[0.25,1],[0,1],[0,0.75],[0,0.5],[0,0.25]];outlineConnect=0;gradientColor=none;html=1;whiteSpace=wrap;fontSize=12;fontStyle=0;container=1;pointerEvents=0;collapsible=0;recursiveResize=0;shape=mxgraph.aws4.group;grIcon=mxgraph.aws4.group_security_group;grStroke=0;strokeColor=#7AA116;fillColor=#F2F6E8;verticalAlign=top;align=left;spacingLeft=30;fontColor=#248814;dashed=0;" vertex="1" parent="Q4IANlV82dqfYIMmkWPD-1">
          <mxGeometry x="90" y="30" width="350" height="230" as="geometry" />
        </mxCell>
        <mxCell id="Q4IANlV82dqfYIMmkWPD-3" value="Security group (allow rules)" style="fillColor=none;strokeColor=#DD3522;verticalAlign=top;fontStyle=0;fontColor=#DD3522;whiteSpace=wrap;html=1;" vertex="1" parent="Q4IANlV82dqfYIMmkWPD-2">
          <mxGeometry x="90" y="30" width="240" height="180" as="geometry" />
        </mxCell>
        <mxCell id="Q4IANlV82dqfYIMmkWPD-7" value="EC2 Instance&lt;div&gt;Public IP + Firewall Software (optional)&amp;nbsp;&lt;br&gt;&lt;/div&gt;" style="sketch=0;outlineConnect=0;fontColor=#232F3E;gradientColor=none;fillColor=#ED7100;strokeColor=none;dashed=0;verticalLabelPosition=bottom;verticalAlign=top;align=center;html=1;fontSize=12;fontStyle=0;aspect=fixed;pointerEvents=1;shape=mxgraph.aws4.instance2;direction=south;" vertex="1" parent="Q4IANlV82dqfYIMmkWPD-2">
          <mxGeometry x="170" y="75" width="80" height="80" as="geometry" />
        </mxCell>
        <mxCell id="Q4IANlV82dqfYIMmkWPD-9" style="edgeStyle=orthogonalEdgeStyle;rounded=0;orthogonalLoop=1;jettySize=auto;html=1;" edge="1" parent="Q4IANlV82dqfYIMmkWPD-1" source="Q4IANlV82dqfYIMmkWPD-6" target="Q4IANlV82dqfYIMmkWPD-7">
          <mxGeometry relative="1" as="geometry" />
        </mxCell>
        <mxCell id="Q4IANlV82dqfYIMmkWPD-6" value="&lt;b&gt;NACL&lt;/b&gt;&lt;div&gt;Network Access Control List&lt;/div&gt;&lt;div&gt;Deny + Allow Rules&lt;/div&gt;" style="sketch=0;outlineConnect=0;fontColor=#232F3E;gradientColor=none;fillColor=#8C4FFF;strokeColor=none;dashed=0;verticalLabelPosition=bottom;verticalAlign=top;align=center;html=1;fontSize=12;fontStyle=0;aspect=fixed;pointerEvents=1;shape=mxgraph.aws4.network_access_control_list;" vertex="1" parent="Q4IANlV82dqfYIMmkWPD-1">
          <mxGeometry x="50" y="106" width="78" height="78" as="geometry" />
        </mxCell>
        <mxCell id="Q4IANlV82dqfYIMmkWPD-8" style="edgeStyle=orthogonalEdgeStyle;rounded=0;orthogonalLoop=1;jettySize=auto;html=1;" edge="1" parent="1" source="Q4IANlV82dqfYIMmkWPD-5" target="Q4IANlV82dqfYIMmkWPD-6">
          <mxGeometry relative="1" as="geometry" />
        </mxCell>
        <mxCell id="Q4IANlV82dqfYIMmkWPD-5" value="Client" style="sketch=0;outlineConnect=0;fontColor=#232F3E;gradientColor=none;fillColor=#232F3D;strokeColor=none;dashed=0;verticalLabelPosition=bottom;verticalAlign=top;align=center;html=1;fontSize=12;fontStyle=0;aspect=fixed;pointerEvents=1;shape=mxgraph.aws4.client;" vertex="1" parent="1">
          <mxGeometry x="100" y="507" width="78" height="76" as="geometry" />
        </mxCell>
      </root>
    </mxGraphModel>
  </diagram>
</mxfile>
